<svg xmlns="http://www.w3.org/2000/svg" viewBox="0 0 512 512">
  <defs>
    <linearGradient id="bg" x1="0%" y1="0%" x2="100%" y2="100%">
      <stop offset="0%"   stop-color="#1E3A8A"/>
      <stop offset="100%" stop-color="#0F766E"/>
    </linearGradient>
    <linearGradient id="leafGrad" x1="0%" y1="0%" x2="100%" y2="100%">
      <stop offset="0%"   stop-color="#22C55E"/>
      <stop offset="100%" stop-color="#16A34A"/>
    </linearGradient>
  </defs>
  <rect width="512" height="512" rx="110" fill="url(#bg)"/>
  <!-- Centered sage leaf — larger for icon-only use -->
  <g transform="translate(256,256)">
    <path d="M0,-160 C68,-148 118,-86 118,-12 C118,62 68,136 0,160 C-68,136 -118,62 -118,-12 C-118,-86 -68,-148 0,-160Z" fill="url(#leafGrad)" opacity="0.9"/>
    <line x1="0" y1="-148" x2="0" y2="148" stroke="white" stroke-width="5" opacity="0.7"/>
    <line x1="0" y1="-100" x2="-56" y2="-62" stroke="white" stroke-width="3" opacity="0.5" stroke-linecap="round"/>
    <line x1="0" y1="-100" x2="56" y2="-62" stroke="white" stroke-width="3" opacity="0.5" stroke-linecap="round"/>
    <line x1="0" y1="-48" x2="-74" y2="-6" stroke="white" stroke-width="3" opacity="0.5" stroke-linecap="round"/>
    <line x1="0" y1="-48" x2="74" y2="-6" stroke="white" stroke-width="3" opacity="0.5" stroke-linecap="round"/>
    <line x1="0" y1="8" x2="-68" y2="55" stroke="white" stroke-width="3" opacity="0.5" stroke-linecap="round"/>
    <line x1="0" y1="8" x2="68" y2="55" stroke="white" stroke-width="3" opacity="0.5" stroke-linecap="round"/>
    <line x1="0" y1="62" x2="-50" y2="105" stroke="white" stroke-width="3" opacity="0.5" stroke-linecap="round"/>
    <line x1="0" y1="62" x2="50" y2="105" stroke="white" stroke-width="3" opacity="0.5" stroke-linecap="round"/>
  </g>
</svg>
